<svg width="16" height="16" viewBox="0 0 16 16" fill="none" xmlns="http://www.w3.org/2000/svg">
<path d="M8.92857 0C6.7589 0 5 1.79086 5 4C5 4.44182 5.35178 4.8 5.78571 4.8C6.21965 4.8 6.57143 4.44182 6.57143 4C6.57143 2.67452 7.62672 1.6 8.92857 1.6H12.0714C13.3733 1.6 14.4286 2.67452 14.4286 4V12C14.4286 13.3255 13.3733 14.4 12.0714 14.4H8.92857C7.62672 14.4 6.57143 13.3255 6.57143 12C6.57143 11.5582 6.21965 11.2 5.78571 11.2C5.35178 11.2 5 11.5582 5 12C5 14.2091 6.7589 16 8.92857 16H12.0714C14.2411 16 16 14.2091 16 12V4C16 1.79086 14.2411 0 12.0714 0H8.92857Z" fill="white"/>
<path d="M0.774341 7.24991C0.346688 7.24991 0 7.58569 0 7.99992C0 8.41415 0.346688 8.74993 0.774341 8.74993H7.18751C7.1186 8.83228 7.05255 8.91216 6.99006 8.98843C6.79996 9.22071 6.63905 9.42464 6.52537 9.57081C6.46854 9.64401 6.42332 9.70282 6.39219 9.74377L6.3561 9.79124L6.34642 9.80407L6.34302 9.80857C6.34294 9.80864 6.34263 9.80909 6.96907 10.2499L6.34302 9.80857C6.09164 10.1437 6.16795 10.6133 6.51391 10.8567C6.85989 11.1002 7.34409 11.0259 7.59551 10.6909L7.59768 10.688L7.60558 10.6775L7.63795 10.6349C7.66652 10.5974 7.7088 10.5422 7.76254 10.4731C7.87017 10.3347 8.02311 10.1409 8.20353 9.92039C8.56847 9.47466 9.0306 8.93886 9.45246 8.53025L10 7.99992L9.45246 7.46959C9.0306 7.06098 8.56847 6.52518 8.20353 6.07942C8.02311 5.85896 7.87017 5.66516 7.76254 5.52676C7.7088 5.45764 7.66652 5.4025 7.63795 5.36498L7.60558 5.3224L7.59768 5.3119L7.5959 5.30949C7.34447 4.97443 6.85989 4.89966 6.51391 5.14312C6.16795 5.38659 6.09125 5.85563 6.34263 6.19073L6.96907 5.74989C6.34263 6.19073 6.34255 6.19069 6.34263 6.19073L6.34379 6.19228L6.34642 6.1958L6.3561 6.20861L6.39219 6.25609C6.42332 6.29699 6.46854 6.35586 6.52537 6.42902C6.63905 6.5752 6.79996 6.77913 6.99006 7.01141C7.05255 7.08768 7.1186 7.16756 7.18751 7.24991H0.774341Z" fill="white"/>
</svg>
